<svg xmlns="http://www.w3.org/2000/svg" xmlns:xlink="http://www.w3.org/1999/xlink" width="500" zoomAndPan="magnify" viewBox="0 0 375 374.999991" height="500" preserveAspectRatio="xMidYMid meet" version="1.0"><defs><g/></defs><g fill="#a6a6a6" fill-opacity="0.4"><g transform="translate(31.372817, 329.097034)"><g><path d="M 9.484375 -17.828125 C 16.054688 -12.515625 24.335938 -7.582031 34.328125 -3.03125 C 44.328125 1.519531 57.421875 3.796875 73.609375 3.796875 C 83.984375 3.796875 93.59375 1.773438 102.4375 -2.265625 C 111.289062 -6.316406 118.4375 -12.453125 123.875 -20.671875 C 129.3125 -28.898438 132.03125 -39.207031 132.03125 -51.59375 C 132.03125 -62.21875 129.878906 -70.945312 125.578125 -77.78125 C 121.285156 -84.613281 115.535156 -90.304688 108.328125 -94.859375 C 101.117188 -99.410156 93.210938 -103.328125 84.609375 -106.609375 C 76.003906 -109.898438 67.335938 -113.378906 58.609375 -117.046875 C 49.890625 -120.710938 41.925781 -125.078125 34.71875 -130.140625 C 27.507812 -135.203125 21.753906 -141.71875 17.453125 -149.6875 C 13.148438 -157.65625 11 -167.707031 11 -179.84375 C 11 -191.726562 13.273438 -201.84375 17.828125 -210.1875 C 22.378906 -218.539062 28.320312 -225.3125 35.65625 -230.5 C 43 -235.6875 50.84375 -239.476562 59.1875 -241.875 C 67.53125 -244.28125 75.5 -245.484375 83.09375 -245.484375 C 93.207031 -245.484375 102.25 -244.28125 110.21875 -241.875 C 118.1875 -239.476562 124.507812 -237.078125 129.1875 -234.671875 C 133.875 -232.265625 136.21875 -231.0625 136.21875 -231.0625 L 136.59375 -223.484375 C 136.59375 -223.484375 134.378906 -224.742188 129.953125 -227.265625 C 125.523438 -229.796875 119.328125 -232.390625 111.359375 -235.046875 C 103.390625 -237.703125 93.96875 -239.03125 83.09375 -239.03125 C 66.90625 -239.03125 54.320312 -234.222656 45.34375 -224.609375 C 36.363281 -215.003906 31.875 -203.375 31.875 -189.71875 C 31.875 -178.332031 34.84375 -169.097656 40.78125 -162.015625 C 46.726562 -154.929688 54.316406 -149.046875 63.546875 -144.359375 C 72.785156 -139.679688 82.585938 -135.253906 92.953125 -131.078125 C 103.328125 -126.910156 113.128906 -122.109375 122.359375 -116.671875 C 131.597656 -111.234375 139.125 -104.085938 144.9375 -95.234375 C 150.757812 -86.378906 153.671875 -75 153.671875 -61.09375 C 153.671875 -46.925781 149.875 -34.53125 142.28125 -23.90625 C 134.695312 -13.28125 124.769531 -5.0625 112.5 0.75 C 100.226562 6.570312 87.265625 9.484375 73.609375 9.484375 C 59.953125 9.484375 48.378906 7.960938 38.890625 4.921875 C 29.398438 1.890625 22.125 -1.140625 17.0625 -4.171875 C 12.007812 -7.210938 9.484375 -8.734375 9.484375 -8.734375 Z M 9.484375 -17.828125 "/></g></g></g><g fill="#898d8d" fill-opacity="1"><g transform="translate(14.604194, 312.328412)"><g><path d="M 9.484375 -17.828125 C 16.054688 -12.515625 24.335938 -7.582031 34.328125 -3.03125 C 44.328125 1.519531 57.421875 3.796875 73.609375 3.796875 C 83.984375 3.796875 93.59375 1.773438 102.4375 -2.265625 C 111.289062 -6.316406 118.4375 -12.453125 123.875 -20.671875 C 129.3125 -28.898438 132.03125 -39.207031 132.03125 -51.59375 C 132.03125 -62.21875 129.878906 -70.945312 125.578125 -77.78125 C 121.285156 -84.613281 115.535156 -90.304688 108.328125 -94.859375 C 101.117188 -99.410156 93.210938 -103.328125 84.609375 -106.609375 C 76.003906 -109.898438 67.335938 -113.378906 58.609375 -117.046875 C 49.890625 -120.710938 41.925781 -125.078125 34.71875 -130.140625 C 27.507812 -135.203125 21.753906 -141.71875 17.453125 -149.6875 C 13.148438 -157.65625 11 -167.707031 11 -179.84375 C 11 -191.726562 13.273438 -201.84375 17.828125 -210.1875 C 22.378906 -218.539062 28.320312 -225.3125 35.65625 -230.5 C 43 -235.6875 50.84375 -239.476562 59.1875 -241.875 C 67.53125 -244.28125 75.5 -245.484375 83.09375 -245.484375 C 93.207031 -245.484375 102.25 -244.28125 110.21875 -241.875 C 118.1875 -239.476562 124.507812 -237.078125 129.1875 -234.671875 C 133.875 -232.265625 136.21875 -231.0625 136.21875 -231.0625 L 136.59375 -223.484375 C 136.59375 -223.484375 134.378906 -224.742188 129.953125 -227.265625 C 125.523438 -229.796875 119.328125 -232.390625 111.359375 -235.046875 C 103.390625 -237.703125 93.96875 -239.03125 83.09375 -239.03125 C 66.90625 -239.03125 54.320312 -234.222656 45.34375 -224.609375 C 36.363281 -215.003906 31.875 -203.375 31.875 -189.71875 C 31.875 -178.332031 34.84375 -169.097656 40.78125 -162.015625 C 46.726562 -154.929688 54.316406 -149.046875 63.546875 -144.359375 C 72.785156 -139.679688 82.585938 -135.253906 92.953125 -131.078125 C 103.328125 -126.910156 113.128906 -122.109375 122.359375 -116.671875 C 131.597656 -111.234375 139.125 -104.085938 144.9375 -95.234375 C 150.757812 -86.378906 153.671875 -75 153.671875 -61.09375 C 153.671875 -46.925781 149.875 -34.53125 142.28125 -23.90625 C 134.695312 -13.28125 124.769531 -5.0625 112.5 0.75 C 100.226562 6.570312 87.265625 9.484375 73.609375 9.484375 C 59.953125 9.484375 48.378906 7.960938 38.890625 4.921875 C 29.398438 1.890625 22.125 -1.140625 17.0625 -4.171875 C 12.007812 -7.210938 9.484375 -8.734375 9.484375 -8.734375 Z M 9.484375 -17.828125 "/></g></g></g><g fill="#737373" fill-opacity="0.4"><g transform="translate(129.728053, 325.595472)"><g><path d="M 218.171875 -238.28125 L 226.890625 -238.28125 L 118.765625 4.9375 L 116.859375 4.9375 L 12.515625 -238.28125 L 41.734375 -238.28125 L 128.25 -36.046875 Z M 218.171875 -238.28125 "/></g></g></g><g fill="#898d8d" fill-opacity="1"><g transform="translate(112.959424, 308.826849)"><g><path d="M 218.171875 -238.28125 L 226.890625 -238.28125 L 118.765625 4.9375 L 116.859375 4.9375 L 12.515625 -238.28125 L 41.734375 -238.28125 L 128.25 -36.046875 Z M 218.171875 -238.28125 "/></g></g></g><g fill="#898d8d" fill-opacity="1"><g transform="translate(10.851887, 289.562609)"><g><path d="M 9.484375 -17.828125 C 16.054688 -12.515625 24.335938 -7.582031 34.328125 -3.03125 C 44.328125 1.519531 57.421875 3.796875 73.609375 3.796875 C 83.984375 3.796875 93.59375 1.773438 102.4375 -2.265625 C 111.289062 -6.316406 118.4375 -12.453125 123.875 -20.671875 C 129.3125 -28.898438 132.03125 -39.207031 132.03125 -51.59375 C 132.03125 -62.21875 129.878906 -70.945312 125.578125 -77.78125 C 121.285156 -84.613281 115.535156 -90.304688 108.328125 -94.859375 C 101.117188 -99.410156 93.210938 -103.328125 84.609375 -106.609375 C 76.003906 -109.898438 67.335938 -113.378906 58.609375 -117.046875 C 49.890625 -120.710938 41.925781 -125.078125 34.71875 -130.140625 C 27.507812 -135.203125 21.753906 -141.71875 17.453125 -149.6875 C 13.148438 -157.65625 11 -167.707031 11 -179.84375 C 11 -191.726562 13.273438 -201.84375 17.828125 -210.1875 C 22.378906 -218.539062 28.320312 -225.3125 35.65625 -230.5 C 43 -235.6875 50.84375 -239.476562 59.1875 -241.875 C 67.53125 -244.28125 75.5 -245.484375 83.09375 -245.484375 C 93.207031 -245.484375 102.25 -244.28125 110.21875 -241.875 C 118.1875 -239.476562 124.507812 -237.078125 129.1875 -234.671875 C 133.875 -232.265625 136.21875 -231.0625 136.21875 -231.0625 L 136.59375 -223.484375 C 136.59375 -223.484375 134.378906 -224.742188 129.953125 -227.265625 C 125.523438 -229.796875 119.328125 -232.390625 111.359375 -235.046875 C 103.390625 -237.703125 93.96875 -239.03125 83.09375 -239.03125 C 66.90625 -239.03125 54.320312 -234.222656 45.34375 -224.609375 C 36.363281 -215.003906 31.875 -203.375 31.875 -189.71875 C 31.875 -178.332031 34.84375 -169.097656 40.78125 -162.015625 C 46.726562 -154.929688 54.316406 -149.046875 63.546875 -144.359375 C 72.785156 -139.679688 82.585938 -135.253906 92.953125 -131.078125 C 103.328125 -126.910156 113.128906 -122.109375 122.359375 -116.671875 C 131.597656 -111.234375 139.125 -104.085938 144.9375 -95.234375 C 150.757812 -86.378906 153.671875 -75 153.671875 -61.09375 C 153.671875 -46.925781 149.875 -34.53125 142.28125 -23.90625 C 134.695312 -13.28125 124.769531 -5.0625 112.5 0.75 C 100.226562 6.570312 87.265625 9.484375 73.609375 9.484375 C 59.953125 9.484375 48.378906 7.960938 38.890625 4.921875 C 29.398438 1.890625 22.125 -1.140625 17.0625 -4.171875 C 12.007812 -7.210938 9.484375 -8.734375 9.484375 -8.734375 Z M 9.484375 -17.828125 "/></g></g></g><g fill="#898d8d" fill-opacity="1"><g transform="translate(104.300945, 286.06104)"><g><path d="M 218.171875 -238.28125 L 226.890625 -238.28125 L 118.765625 4.9375 L 116.859375 4.9375 L 12.515625 -238.28125 L 41.734375 -238.28125 L 128.25 -36.046875 Z M 218.171875 -238.28125 "/></g></g></g><path stroke-linecap="butt" transform="matrix(1.422863, 0, 0, 1.422863, 95.281023, 46.21619)" fill="none" stroke-linejoin="miter" d="M 0.000159507 2.000411 L 59.338051 2.000411 " stroke="#898d8d" stroke-width="4" stroke-opacity="1" stroke-miterlimit="4"/><path stroke-linecap="butt" transform="matrix(1.422863, 0, 0, 1.422863, 284.721871, 46.21619)" fill="none" stroke-linejoin="miter" d="M 0.000551597 2.000411 L 55.821656 2.000411 " stroke="#898d8d" stroke-width="4" stroke-opacity="1" stroke-miterlimit="4"/><path stroke-linecap="butt" transform="matrix(0, 1.422863, -1.422863, 0, 25.074175, 239.289812)" fill="none" stroke-linejoin="miter" d="M -0.000526956 2.001326 L 55.820578 2.001326 " stroke="#898d8d" stroke-width="4" stroke-opacity="1" stroke-miterlimit="4"/></svg>