<svg xmlns="http://www.w3.org/2000/svg" xmlns:xlink="http://www.w3.org/1999/xlink" width="500" zoomAndPan="magnify" viewBox="0 0 375 374.999991" height="500" preserveAspectRatio="xMidYMid meet" version="1.0"><defs><g/></defs><g fill="#a6a6a6" fill-opacity="0.4"><g transform="translate(21.390428, 335.096646)"><g><path d="M 9.890625 -18.59375 C 16.742188 -13.050781 25.378906 -7.90625 35.796875 -3.15625 C 46.210938 1.582031 59.859375 3.953125 76.734375 3.953125 C 87.535156 3.953125 97.550781 1.84375 106.78125 -2.375 C 116.007812 -6.59375 123.457031 -12.984375 129.125 -21.546875 C 134.800781 -30.117188 137.640625 -40.863281 137.640625 -53.78125 C 137.640625 -64.863281 135.394531 -73.960938 130.90625 -81.078125 C 126.425781 -88.191406 120.425781 -94.125 112.90625 -98.875 C 105.394531 -103.625 97.15625 -107.710938 88.1875 -111.140625 C 79.226562 -114.566406 70.195312 -118.191406 61.09375 -122.015625 C 52 -125.835938 43.695312 -130.382812 36.1875 -135.65625 C 28.675781 -140.925781 22.675781 -147.710938 18.1875 -156.015625 C 13.707031 -164.328125 11.46875 -174.8125 11.46875 -187.46875 C 11.46875 -199.863281 13.835938 -210.410156 18.578125 -219.109375 C 23.328125 -227.804688 29.523438 -234.859375 37.171875 -240.265625 C 44.816406 -245.671875 52.988281 -249.625 61.6875 -252.125 C 70.394531 -254.632812 78.703125 -255.890625 86.609375 -255.890625 C 97.160156 -255.890625 106.585938 -254.632812 114.890625 -252.125 C 123.191406 -249.625 129.78125 -247.117188 134.65625 -244.609375 C 139.539062 -242.109375 141.984375 -240.859375 141.984375 -240.859375 L 142.375 -232.953125 C 142.375 -232.953125 140.066406 -234.269531 135.453125 -236.90625 C 130.835938 -239.539062 124.378906 -242.242188 116.078125 -245.015625 C 107.773438 -247.785156 97.953125 -249.171875 86.609375 -249.171875 C 69.734375 -249.171875 56.613281 -244.160156 47.25 -234.140625 C 37.894531 -224.117188 33.21875 -211.988281 33.21875 -197.75 C 33.21875 -185.882812 36.316406 -176.257812 42.515625 -168.875 C 48.710938 -161.488281 56.625 -155.359375 66.25 -150.484375 C 75.875 -145.609375 86.085938 -140.992188 96.890625 -136.640625 C 107.703125 -132.296875 117.921875 -127.285156 127.546875 -121.609375 C 137.171875 -115.941406 145.015625 -108.492188 151.078125 -99.265625 C 157.140625 -90.035156 160.171875 -78.171875 160.171875 -63.671875 C 160.171875 -48.910156 156.21875 -35.992188 148.3125 -24.921875 C 140.40625 -13.847656 130.054688 -5.28125 117.265625 0.78125 C 104.472656 6.851562 90.960938 9.890625 76.734375 9.890625 C 62.492188 9.890625 50.425781 8.304688 40.53125 5.140625 C 30.644531 1.972656 23.066406 -1.1875 17.796875 -4.34375 C 12.523438 -7.507812 9.890625 -9.09375 9.890625 -9.09375 Z M 9.890625 -18.59375 "/></g></g></g><g fill="#898d8d" fill-opacity="1"><g transform="translate(3.911301, 317.617519)"><g><path d="M 9.890625 -18.59375 C 16.742188 -13.050781 25.378906 -7.90625 35.796875 -3.15625 C 46.210938 1.582031 59.859375 3.953125 76.734375 3.953125 C 87.535156 3.953125 97.550781 1.84375 106.78125 -2.375 C 116.007812 -6.59375 123.457031 -12.984375 129.125 -21.546875 C 134.800781 -30.117188 137.640625 -40.863281 137.640625 -53.78125 C 137.640625 -64.863281 135.394531 -73.960938 130.90625 -81.078125 C 126.425781 -88.191406 120.425781 -94.125 112.90625 -98.875 C 105.394531 -103.625 97.15625 -107.710938 88.1875 -111.140625 C 79.226562 -114.566406 70.195312 -118.191406 61.09375 -122.015625 C 52 -125.835938 43.695312 -130.382812 36.1875 -135.65625 C 28.675781 -140.925781 22.675781 -147.710938 18.1875 -156.015625 C 13.707031 -164.328125 11.46875 -174.8125 11.46875 -187.46875 C 11.46875 -199.863281 13.835938 -210.410156 18.578125 -219.109375 C 23.328125 -227.804688 29.523438 -234.859375 37.171875 -240.265625 C 44.816406 -245.671875 52.988281 -249.625 61.6875 -252.125 C 70.394531 -254.632812 78.703125 -255.890625 86.609375 -255.890625 C 97.160156 -255.890625 106.585938 -254.632812 114.890625 -252.125 C 123.191406 -249.625 129.78125 -247.117188 134.65625 -244.609375 C 139.539062 -242.109375 141.984375 -240.859375 141.984375 -240.859375 L 142.375 -232.953125 C 142.375 -232.953125 140.066406 -234.269531 135.453125 -236.90625 C 130.835938 -239.539062 124.378906 -242.242188 116.078125 -245.015625 C 107.773438 -247.785156 97.953125 -249.171875 86.609375 -249.171875 C 69.734375 -249.171875 56.613281 -244.160156 47.25 -234.140625 C 37.894531 -224.117188 33.21875 -211.988281 33.21875 -197.75 C 33.21875 -185.882812 36.316406 -176.257812 42.515625 -168.875 C 48.710938 -161.488281 56.625 -155.359375 66.25 -150.484375 C 75.875 -145.609375 86.085938 -140.992188 96.890625 -136.640625 C 107.703125 -132.296875 117.921875 -127.285156 127.546875 -121.609375 C 137.171875 -115.941406 145.015625 -108.492188 151.078125 -99.265625 C 157.140625 -90.035156 160.171875 -78.171875 160.171875 -63.671875 C 160.171875 -48.910156 156.21875 -35.992188 148.3125 -24.921875 C 140.40625 -13.847656 130.054688 -5.28125 117.265625 0.78125 C 104.472656 6.851562 90.960938 9.890625 76.734375 9.890625 C 62.492188 9.890625 50.425781 8.304688 40.53125 5.140625 C 30.644531 1.972656 23.066406 -1.1875 17.796875 -4.34375 C 12.523438 -7.507812 9.890625 -9.09375 9.890625 -9.09375 Z M 9.890625 -18.59375 "/></g></g></g><g fill="#737373" fill-opacity="0.4"><g transform="translate(123.913076, 331.446722)"><g><path d="M 227.40625 -248.375 L 236.515625 -248.375 L 123.796875 5.140625 L 121.8125 5.140625 L 13.046875 -248.375 L 43.5 -248.375 L 133.671875 -37.578125 Z M 227.40625 -248.375 "/></g></g></g><g fill="#898d8d" fill-opacity="1"><g transform="translate(106.433954, 313.96759)"><g><path d="M 227.40625 -248.375 L 236.515625 -248.375 L 123.796875 5.140625 L 121.8125 5.140625 L 13.046875 -248.375 L 43.5 -248.375 L 133.671875 -37.578125 Z M 227.40625 -248.375 "/></g></g></g><g fill="#898d8d" fill-opacity="1"><g transform="translate(0.0000045, 293.887111)"><g><path d="M 9.890625 -18.59375 C 16.742188 -13.050781 25.378906 -7.90625 35.796875 -3.15625 C 46.210938 1.582031 59.859375 3.953125 76.734375 3.953125 C 87.535156 3.953125 97.550781 1.84375 106.78125 -2.375 C 116.007812 -6.59375 123.457031 -12.984375 129.125 -21.546875 C 134.800781 -30.117188 137.640625 -40.863281 137.640625 -53.78125 C 137.640625 -64.863281 135.394531 -73.960938 130.90625 -81.078125 C 126.425781 -88.191406 120.425781 -94.125 112.90625 -98.875 C 105.394531 -103.625 97.15625 -107.710938 88.1875 -111.140625 C 79.226562 -114.566406 70.195312 -118.191406 61.09375 -122.015625 C 52 -125.835938 43.695312 -130.382812 36.1875 -135.65625 C 28.675781 -140.925781 22.675781 -147.710938 18.1875 -156.015625 C 13.707031 -164.328125 11.46875 -174.8125 11.46875 -187.46875 C 11.46875 -199.863281 13.835938 -210.410156 18.578125 -219.109375 C 23.328125 -227.804688 29.523438 -234.859375 37.171875 -240.265625 C 44.816406 -245.671875 52.988281 -249.625 61.6875 -252.125 C 70.394531 -254.632812 78.703125 -255.890625 86.609375 -255.890625 C 97.160156 -255.890625 106.585938 -254.632812 114.890625 -252.125 C 123.191406 -249.625 129.78125 -247.117188 134.65625 -244.609375 C 139.539062 -242.109375 141.984375 -240.859375 141.984375 -240.859375 L 142.375 -232.953125 C 142.375 -232.953125 140.066406 -234.269531 135.453125 -236.90625 C 130.835938 -239.539062 124.378906 -242.242188 116.078125 -245.015625 C 107.773438 -247.785156 97.953125 -249.171875 86.609375 -249.171875 C 69.734375 -249.171875 56.613281 -244.160156 47.25 -234.140625 C 37.894531 -224.117188 33.21875 -211.988281 33.21875 -197.75 C 33.21875 -185.882812 36.316406 -176.257812 42.515625 -168.875 C 48.710938 -161.488281 56.625 -155.359375 66.25 -150.484375 C 75.875 -145.609375 86.085938 -140.992188 96.890625 -136.640625 C 107.703125 -132.296875 117.921875 -127.285156 127.546875 -121.609375 C 137.171875 -115.941406 145.015625 -108.492188 151.078125 -99.265625 C 157.140625 -90.035156 160.171875 -78.171875 160.171875 -63.671875 C 160.171875 -48.910156 156.21875 -35.992188 148.3125 -24.921875 C 140.40625 -13.847656 130.054688 -5.28125 117.265625 0.78125 C 104.472656 6.851562 90.960938 9.890625 76.734375 9.890625 C 62.492188 9.890625 50.425781 8.304688 40.53125 5.140625 C 30.644531 1.972656 23.066406 -1.1875 17.796875 -4.34375 C 12.523438 -7.507812 9.890625 -9.09375 9.890625 -9.09375 Z M 9.890625 -18.59375 "/></g></g></g><g fill="#898d8d" fill-opacity="1"><g transform="translate(97.408606, 290.237167)"><g><path d="M 227.40625 -248.375 L 236.515625 -248.375 L 123.796875 5.140625 L 121.8125 5.140625 L 13.046875 -248.375 L 43.5 -248.375 L 133.671875 -37.578125 Z M 227.40625 -248.375 "/></g></g></g><path stroke-linecap="butt" transform="matrix(0.937678, 0.000000000000000142, -0.000000000000000142, 0.937678, 88.006494, 39.739267)" fill="none" stroke-linejoin="miter" d="M 0.00140622 2.998379 L 93.854418 2.998379 " stroke="#898d8d" stroke-width="6" stroke-opacity="1" stroke-miterlimit="4"/><path stroke-linecap="butt" transform="matrix(0.937678, 0, 0, 0.937678, 285.474185, 39.739267)" fill="none" stroke-linejoin="miter" d="M -0.00163031 2.998379 L 88.294104 2.998379 " stroke="#898d8d" stroke-width="6" stroke-opacity="1" stroke-miterlimit="4"/><path stroke-linecap="butt" transform="matrix(0, 0.937678, -0.937678, 0, 14.672142, 241.483695)" fill="none" stroke-linejoin="miter" d="M 0.00072483 2.999715 L 88.292293 2.999715 " stroke="#898d8d" stroke-width="6" stroke-opacity="1" stroke-miterlimit="4"/></svg>