<svg xmlns="http://www.w3.org/2000/svg" xmlns:xlink="http://www.w3.org/1999/xlink" width="500" zoomAndPan="magnify" viewBox="0 0 375 374.999991" height="500" preserveAspectRatio="xMidYMid meet" version="1.0"><defs><g/></defs><g fill="#a6a6a6" fill-opacity="0.4"><g transform="translate(57.330747, 267.462921)"><g><path d="M 7.90625 -14.875 C 13.394531 -10.4375 20.300781 -6.320312 28.625 -2.53125 C 36.957031 1.257812 47.875 3.15625 61.375 3.15625 C 70.019531 3.15625 78.03125 1.472656 85.40625 -1.890625 C 92.789062 -5.265625 98.75 -10.378906 103.28125 -17.234375 C 107.820312 -24.085938 110.09375 -32.679688 110.09375 -43.015625 C 110.09375 -51.878906 108.296875 -59.15625 104.703125 -64.84375 C 101.117188 -70.539062 96.320312 -75.285156 90.3125 -79.078125 C 84.300781 -82.878906 77.707031 -86.148438 70.53125 -88.890625 C 63.363281 -91.628906 56.144531 -94.523438 48.875 -97.578125 C 41.601562 -100.640625 34.957031 -104.28125 28.9375 -108.5 C 22.925781 -112.71875 18.128906 -118.148438 14.546875 -124.796875 C 10.960938 -131.441406 9.171875 -139.828125 9.171875 -149.953125 C 9.171875 -159.859375 11.066406 -168.289062 14.859375 -175.25 C 18.660156 -182.207031 23.617188 -187.847656 29.734375 -192.171875 C 35.847656 -196.492188 42.382812 -199.65625 49.34375 -201.65625 C 56.300781 -203.664062 62.945312 -204.671875 69.28125 -204.671875 C 77.71875 -204.671875 85.253906 -203.664062 91.890625 -201.65625 C 98.535156 -199.65625 103.804688 -197.65625 107.703125 -195.65625 C 111.609375 -193.65625 113.5625 -192.65625 113.5625 -192.65625 L 113.890625 -186.328125 C 113.890625 -186.328125 112.039062 -187.378906 108.34375 -189.484375 C 104.65625 -191.597656 99.488281 -193.757812 92.84375 -195.96875 C 86.195312 -198.1875 78.34375 -199.296875 69.28125 -199.296875 C 55.78125 -199.296875 45.285156 -195.285156 37.796875 -187.265625 C 30.316406 -179.253906 26.578125 -169.554688 26.578125 -158.171875 C 26.578125 -148.679688 29.050781 -140.984375 34 -135.078125 C 38.957031 -129.171875 45.285156 -124.265625 52.984375 -120.359375 C 60.679688 -116.460938 68.851562 -112.773438 77.5 -109.296875 C 86.144531 -105.816406 94.316406 -101.804688 102.015625 -97.265625 C 109.710938 -92.734375 115.988281 -86.773438 120.84375 -79.390625 C 125.695312 -72.015625 128.125 -62.53125 128.125 -50.9375 C 128.125 -39.125 124.957031 -28.785156 118.625 -19.921875 C 112.300781 -11.066406 104.023438 -4.21875 93.796875 0.625 C 83.566406 5.476562 72.757812 7.90625 61.375 7.90625 C 49.976562 7.90625 40.328125 6.640625 32.421875 4.109375 C 24.515625 1.578125 18.453125 -0.953125 14.234375 -3.484375 C 10.015625 -6.015625 7.90625 -7.28125 7.90625 -7.28125 Z M 7.90625 -14.875 "/></g></g></g><g fill="#898d8d" fill-opacity="1"><g transform="translate(43.3501, 253.482277)"><g><path d="M 7.90625 -14.875 C 13.394531 -10.4375 20.300781 -6.320312 28.625 -2.53125 C 36.957031 1.257812 47.875 3.15625 61.375 3.15625 C 70.019531 3.15625 78.03125 1.472656 85.40625 -1.890625 C 92.789062 -5.265625 98.75 -10.378906 103.28125 -17.234375 C 107.820312 -24.085938 110.09375 -32.679688 110.09375 -43.015625 C 110.09375 -51.878906 108.296875 -59.15625 104.703125 -64.84375 C 101.117188 -70.539062 96.320312 -75.285156 90.3125 -79.078125 C 84.300781 -82.878906 77.707031 -86.148438 70.53125 -88.890625 C 63.363281 -91.628906 56.144531 -94.523438 48.875 -97.578125 C 41.601562 -100.640625 34.957031 -104.28125 28.9375 -108.5 C 22.925781 -112.71875 18.128906 -118.148438 14.546875 -124.796875 C 10.960938 -131.441406 9.171875 -139.828125 9.171875 -149.953125 C 9.171875 -159.859375 11.066406 -168.289062 14.859375 -175.25 C 18.660156 -182.207031 23.617188 -187.847656 29.734375 -192.171875 C 35.847656 -196.492188 42.382812 -199.65625 49.34375 -201.65625 C 56.300781 -203.664062 62.945312 -204.671875 69.28125 -204.671875 C 77.71875 -204.671875 85.253906 -203.664062 91.890625 -201.65625 C 98.535156 -199.65625 103.804688 -197.65625 107.703125 -195.65625 C 111.609375 -193.65625 113.5625 -192.65625 113.5625 -192.65625 L 113.890625 -186.328125 C 113.890625 -186.328125 112.039062 -187.378906 108.34375 -189.484375 C 104.65625 -191.597656 99.488281 -193.757812 92.84375 -195.96875 C 86.195312 -198.1875 78.34375 -199.296875 69.28125 -199.296875 C 55.78125 -199.296875 45.285156 -195.285156 37.796875 -187.265625 C 30.316406 -179.253906 26.578125 -169.554688 26.578125 -158.171875 C 26.578125 -148.679688 29.050781 -140.984375 34 -135.078125 C 38.957031 -129.171875 45.285156 -124.265625 52.984375 -120.359375 C 60.679688 -116.460938 68.851562 -112.773438 77.5 -109.296875 C 86.144531 -105.816406 94.316406 -101.804688 102.015625 -97.265625 C 109.710938 -92.734375 115.988281 -86.773438 120.84375 -79.390625 C 125.695312 -72.015625 128.125 -62.53125 128.125 -50.9375 C 128.125 -39.125 124.957031 -28.785156 118.625 -19.921875 C 112.300781 -11.066406 104.023438 -4.21875 93.796875 0.625 C 83.566406 5.476562 72.757812 7.90625 61.375 7.90625 C 49.976562 7.90625 40.328125 6.640625 32.421875 4.109375 C 24.515625 1.578125 18.453125 -0.953125 14.234375 -3.484375 C 10.015625 -6.015625 7.90625 -7.28125 7.90625 -7.28125 Z M 7.90625 -14.875 "/></g></g></g><g fill="#737373" fill-opacity="0.4"><g transform="translate(139.333267, 264.543533)"><g><path d="M 181.890625 -198.65625 L 189.171875 -198.65625 L 99.015625 4.109375 L 97.4375 4.109375 L 10.4375 -198.65625 L 34.796875 -198.65625 L 106.921875 -30.046875 Z M 181.890625 -198.65625 "/></g></g></g><g fill="#898d8d" fill-opacity="1"><g transform="translate(125.352623, 250.562888)"><g><path d="M 181.890625 -198.65625 L 189.171875 -198.65625 L 99.015625 4.109375 L 97.4375 4.109375 L 10.4375 -198.65625 L 34.796875 -198.65625 L 106.921875 -30.046875 Z M 181.890625 -198.65625 "/></g></g></g><g fill="#898d8d" fill-opacity="1"><g transform="translate(40.221659, 234.501551)"><g><path d="M 7.90625 -14.875 C 13.394531 -10.4375 20.300781 -6.320312 28.625 -2.53125 C 36.957031 1.257812 47.875 3.15625 61.375 3.15625 C 70.019531 3.15625 78.03125 1.472656 85.40625 -1.890625 C 92.789062 -5.265625 98.75 -10.378906 103.28125 -17.234375 C 107.820312 -24.085938 110.09375 -32.679688 110.09375 -43.015625 C 110.09375 -51.878906 108.296875 -59.15625 104.703125 -64.84375 C 101.117188 -70.539062 96.320312 -75.285156 90.3125 -79.078125 C 84.300781 -82.878906 77.707031 -86.148438 70.53125 -88.890625 C 63.363281 -91.628906 56.144531 -94.523438 48.875 -97.578125 C 41.601562 -100.640625 34.957031 -104.28125 28.9375 -108.5 C 22.925781 -112.71875 18.128906 -118.148438 14.546875 -124.796875 C 10.960938 -131.441406 9.171875 -139.828125 9.171875 -149.953125 C 9.171875 -159.859375 11.066406 -168.289062 14.859375 -175.25 C 18.660156 -182.207031 23.617188 -187.847656 29.734375 -192.171875 C 35.847656 -196.492188 42.382812 -199.65625 49.34375 -201.65625 C 56.300781 -203.664062 62.945312 -204.671875 69.28125 -204.671875 C 77.71875 -204.671875 85.253906 -203.664062 91.890625 -201.65625 C 98.535156 -199.65625 103.804688 -197.65625 107.703125 -195.65625 C 111.609375 -193.65625 113.5625 -192.65625 113.5625 -192.65625 L 113.890625 -186.328125 C 113.890625 -186.328125 112.039062 -187.378906 108.34375 -189.484375 C 104.65625 -191.597656 99.488281 -193.757812 92.84375 -195.96875 C 86.195312 -198.1875 78.34375 -199.296875 69.28125 -199.296875 C 55.78125 -199.296875 45.285156 -195.285156 37.796875 -187.265625 C 30.316406 -179.253906 26.578125 -169.554688 26.578125 -158.171875 C 26.578125 -148.679688 29.050781 -140.984375 34 -135.078125 C 38.957031 -129.171875 45.285156 -124.265625 52.984375 -120.359375 C 60.679688 -116.460938 68.851562 -112.773438 77.5 -109.296875 C 86.144531 -105.816406 94.316406 -101.804688 102.015625 -97.265625 C 109.710938 -92.734375 115.988281 -86.773438 120.84375 -79.390625 C 125.695312 -72.015625 128.125 -62.53125 128.125 -50.9375 C 128.125 -39.125 124.957031 -28.785156 118.625 -19.921875 C 112.300781 -11.066406 104.023438 -4.21875 93.796875 0.625 C 83.566406 5.476562 72.757812 7.90625 61.375 7.90625 C 49.976562 7.90625 40.328125 6.640625 32.421875 4.109375 C 24.515625 1.578125 18.453125 -0.953125 14.234375 -3.484375 C 10.015625 -6.015625 7.90625 -7.28125 7.90625 -7.28125 Z M 7.90625 -14.875 "/></g></g></g><g fill="#898d8d" fill-opacity="1"><g transform="translate(118.133742, 231.582156)"><g><path d="M 181.890625 -198.65625 L 189.171875 -198.65625 L 99.015625 4.109375 L 97.4375 4.109375 L 10.4375 -198.65625 L 34.796875 -198.65625 L 106.921875 -30.046875 Z M 181.890625 -198.65625 "/></g></g></g><path stroke-linecap="butt" transform="matrix(0.88396, 0.000000000000000158, -0.000000000000000158, 0.88396, 110.613484, 31.261994)" fill="none" stroke-linejoin="miter" d="M -0.000229859 2.500863 L 79.630805 2.500863 " stroke="#898d8d" stroke-width="5" stroke-opacity="1" stroke-miterlimit="4"/><path stroke-linecap="butt" transform="matrix(0.88396, 0, 0, 0.88396, 268.557584, 31.261994)" fill="none" stroke-linejoin="miter" d="M 0.00114178 2.500863 L 74.912646 2.500863 " stroke="#898d8d" stroke-width="5" stroke-opacity="1" stroke-miterlimit="4"/><path stroke-linecap="butt" transform="matrix(0, 0.88396, -0.88396, 0, 51.918623, 192.585191)" fill="none" stroke-linejoin="miter" d="M 0.000844096 2.501914 L 74.912349 2.501914 " stroke="#898d8d" stroke-width="5" stroke-opacity="1" stroke-miterlimit="4"/><g fill="#898d8d" fill-opacity="1"><g transform="translate(0.0791529, 347.71304)"><g><path d="M 1.609375 -3.03125 C 2.734375 -2.132812 4.144531 -1.296875 5.84375 -0.515625 C 7.550781 0.253906 9.785156 0.640625 12.546875 0.640625 C 14.304688 0.640625 15.941406 0.296875 17.453125 -0.390625 C 18.960938 -1.078125 20.179688 -2.117188 21.109375 -3.515625 C 22.035156 -4.921875 22.5 -6.679688 22.5 -8.796875 C 22.5 -10.609375 22.128906 -12.09375 21.390625 -13.25 C 20.660156 -14.414062 19.679688 -15.382812 18.453125 -16.15625 C 17.222656 -16.9375 15.875 -17.609375 14.40625 -18.171875 C 12.945312 -18.734375 11.472656 -19.328125 9.984375 -19.953125 C 8.503906 -20.578125 7.148438 -21.316406 5.921875 -22.171875 C 4.691406 -23.035156 3.707031 -24.144531 2.96875 -25.5 C 2.238281 -26.863281 1.875 -28.578125 1.875 -30.640625 C 1.875 -32.671875 2.257812 -34.394531 3.03125 -35.8125 C 3.8125 -37.238281 4.828125 -38.394531 6.078125 -39.28125 C 7.328125 -40.164062 8.660156 -40.8125 10.078125 -41.21875 C 11.503906 -41.625 12.863281 -41.828125 14.15625 -41.828125 C 15.882812 -41.828125 17.425781 -41.625 18.78125 -41.21875 C 20.132812 -40.8125 21.210938 -40.398438 22.015625 -39.984375 C 22.816406 -39.578125 23.21875 -39.375 23.21875 -39.375 L 23.28125 -38.078125 C 23.28125 -38.078125 22.898438 -38.289062 22.140625 -38.71875 C 21.390625 -39.15625 20.332031 -39.597656 18.96875 -40.046875 C 17.613281 -40.503906 16.007812 -40.734375 14.15625 -40.734375 C 11.394531 -40.734375 9.25 -39.910156 7.71875 -38.265625 C 6.195312 -36.628906 5.4375 -34.648438 5.4375 -32.328125 C 5.4375 -30.390625 5.941406 -28.816406 6.953125 -27.609375 C 7.960938 -26.398438 9.253906 -25.394531 10.828125 -24.59375 C 12.398438 -23.800781 14.066406 -23.046875 15.828125 -22.328125 C 17.597656 -21.617188 19.269531 -20.800781 20.84375 -19.875 C 22.425781 -18.945312 23.710938 -17.726562 24.703125 -16.21875 C 25.691406 -14.71875 26.1875 -12.78125 26.1875 -10.40625 C 26.1875 -7.988281 25.539062 -5.875 24.25 -4.0625 C 22.957031 -2.257812 21.265625 -0.863281 19.171875 0.125 C 17.078125 1.113281 14.867188 1.609375 12.546875 1.609375 C 10.210938 1.609375 8.238281 1.347656 6.625 0.828125 C 5.007812 0.316406 3.769531 -0.191406 2.90625 -0.703125 C 2.039062 -1.222656 1.609375 -1.484375 1.609375 -1.484375 Z M 1.609375 -3.03125 "/></g></g></g><g fill="#898d8d" fill-opacity="1"><g transform="translate(28.848428, 347.71304)"><g><path d="M 31.8125 -40.609375 L 31.8125 -39.5 L 19.265625 -39.5 L 19.265625 0.0625 L 14.671875 0.0625 L 14.671875 -39.5 L 2.140625 -39.5 L 2.140625 -40.609375 Z M 31.8125 -40.609375 "/></g></g></g><g fill="#898d8d" fill-opacity="1"><g transform="translate(62.789715, 347.71304)"><g><path d="M 31.546875 -40.609375 L 32.78125 -40.609375 L 19.84375 -18.9375 L 19.84375 0.0625 L 15.1875 0.0625 L 15.1875 -17.65625 L 2.0625 -40.609375 L 7.4375 -40.609375 L 19.203125 -19.984375 Z M 31.546875 -40.609375 "/></g></g></g><g fill="#898d8d" fill-opacity="1"><g transform="translate(97.700742, 347.71304)"><g><path d="M 7.765625 -1.03125 L 23.921875 -1.03125 L 23.921875 0.0625 L 3.109375 0.0625 L 3.109375 -40.609375 L 7.765625 -40.609375 Z M 7.765625 -1.03125 "/></g></g></g><g fill="#898d8d" fill-opacity="1"><g transform="translate(124.077967, 347.71304)"><g><path d="M 24.828125 -41.375 C 27.710938 -41.375 30.488281 -40.960938 33.15625 -40.140625 C 35.832031 -39.328125 38.21875 -38.066406 40.3125 -36.359375 C 42.40625 -34.660156 44.066406 -32.460938 45.296875 -29.765625 C 46.523438 -27.078125 47.140625 -23.859375 47.140625 -20.109375 C 47.140625 -16.660156 46.628906 -13.71875 45.609375 -11.28125 C 44.597656 -8.84375 43.257812 -6.816406 41.59375 -5.203125 C 39.9375 -3.585938 38.128906 -2.304688 36.171875 -1.359375 C 34.210938 -0.410156 32.238281 0.242188 30.25 0.609375 C 28.269531 0.972656 26.460938 1.15625 24.828125 1.15625 C 23.234375 1.15625 21.441406 0.972656 19.453125 0.609375 C 17.472656 0.242188 15.488281 -0.410156 13.5 -1.359375 C 11.519531 -2.304688 9.710938 -3.585938 8.078125 -5.203125 C 6.441406 -6.816406 5.117188 -8.84375 4.109375 -11.28125 C 3.097656 -13.71875 2.59375 -16.660156 2.59375 -20.109375 C 2.59375 -23.859375 3.191406 -27.078125 4.390625 -29.765625 C 5.597656 -32.460938 7.25 -34.660156 9.34375 -36.359375 C 11.4375 -38.066406 13.816406 -39.328125 16.484375 -40.140625 C 19.160156 -40.960938 21.941406 -41.375 24.828125 -41.375 Z M 24.828125 0.125 C 26.640625 0.125 28.566406 -0.140625 30.609375 -0.671875 C 32.660156 -1.210938 34.566406 -2.191406 36.328125 -3.609375 C 38.097656 -5.035156 39.539062 -7.082031 40.65625 -9.75 C 41.78125 -12.425781 42.34375 -15.878906 42.34375 -20.109375 C 42.34375 -23.472656 41.941406 -26.328125 41.140625 -28.671875 C 40.347656 -31.023438 39.304688 -32.953125 38.015625 -34.453125 C 36.722656 -35.960938 35.289062 -37.148438 33.71875 -38.015625 C 32.144531 -38.878906 30.582031 -39.472656 29.03125 -39.796875 C 27.476562 -40.117188 26.078125 -40.28125 24.828125 -40.28125 C 23.578125 -40.28125 22.175781 -40.117188 20.625 -39.796875 C 19.070312 -39.472656 17.519531 -38.878906 15.96875 -38.015625 C 14.414062 -37.148438 12.984375 -35.960938 11.671875 -34.453125 C 10.359375 -32.953125 9.300781 -31.023438 8.5 -28.671875 C 7.707031 -26.328125 7.3125 -23.472656 7.3125 -20.109375 C 7.3125 -15.878906 7.867188 -12.425781 8.984375 -9.75 C 10.109375 -7.082031 11.5625 -5.035156 13.34375 -3.609375 C 15.132812 -2.191406 17.039062 -1.210938 19.0625 -0.671875 C 21.09375 -0.140625 23.015625 0.125 24.828125 0.125 Z M 24.828125 0.125 "/></g></g></g><g fill="#898d8d" fill-opacity="1"><g transform="translate(174.117119, 347.71304)"><g/></g></g><g fill="#898d8d" fill-opacity="1"><g transform="translate(190.279628, 347.71304)"><g><path d="M 37.171875 -40.609375 L 38.671875 -40.609375 L 20.234375 0.84375 L 19.921875 0.84375 L 2.140625 -40.609375 L 7.109375 -40.609375 L 21.859375 -6.140625 Z M 37.171875 -40.609375 "/></g></g></g><g fill="#898d8d" fill-opacity="1"><g transform="translate(231.138477, 347.71304)"><g><path d="M 3.75 0.0625 L 3.75 -40.609375 L 8.40625 -40.609375 L 8.40625 0.0625 Z M 3.75 0.0625 "/></g></g></g><g fill="#898d8d" fill-opacity="1"><g transform="translate(243.551283, 347.71304)"><g><path d="M 2.265625 -3.03125 C 3.378906 -2.132812 4.785156 -1.296875 6.484375 -0.515625 C 8.191406 0.253906 10.425781 0.640625 13.1875 0.640625 C 14.957031 0.640625 16.59375 0.296875 18.09375 -0.390625 C 19.601562 -1.078125 20.820312 -2.117188 21.75 -3.515625 C 22.675781 -4.921875 23.140625 -6.679688 23.140625 -8.796875 C 23.140625 -10.609375 22.773438 -12.09375 22.046875 -13.25 C 21.316406 -14.414062 20.335938 -15.382812 19.109375 -16.15625 C 17.878906 -16.9375 16.53125 -17.609375 15.0625 -18.171875 C 13.59375 -18.734375 12.113281 -19.328125 10.625 -19.953125 C 9.144531 -20.578125 7.789062 -21.316406 6.5625 -22.171875 C 5.332031 -23.035156 4.347656 -24.144531 3.609375 -25.5 C 2.878906 -26.863281 2.515625 -28.578125 2.515625 -30.640625 C 2.515625 -32.671875 2.898438 -34.394531 3.671875 -35.8125 C 4.453125 -37.238281 5.46875 -38.394531 6.71875 -39.28125 C 7.96875 -40.164062 9.300781 -40.8125 10.71875 -41.21875 C 12.144531 -41.625 13.507812 -41.828125 14.8125 -41.828125 C 16.53125 -41.828125 18.066406 -41.625 19.421875 -41.21875 C 20.785156 -40.8125 21.863281 -40.398438 22.65625 -39.984375 C 23.457031 -39.578125 23.859375 -39.375 23.859375 -39.375 L 23.921875 -38.078125 C 23.921875 -38.078125 23.539062 -38.289062 22.78125 -38.71875 C 22.03125 -39.15625 20.976562 -39.597656 19.625 -40.046875 C 18.269531 -40.503906 16.664062 -40.734375 14.8125 -40.734375 C 12.050781 -40.734375 9.90625 -39.910156 8.375 -38.265625 C 6.84375 -36.628906 6.078125 -34.648438 6.078125 -32.328125 C 6.078125 -30.390625 6.582031 -28.816406 7.59375 -27.609375 C 8.601562 -26.398438 9.894531 -25.394531 11.46875 -24.59375 C 13.050781 -23.800781 14.722656 -23.046875 16.484375 -22.328125 C 18.253906 -21.617188 19.925781 -20.800781 21.5 -19.875 C 23.070312 -18.945312 24.351562 -17.726562 25.34375 -16.21875 C 26.332031 -14.71875 26.828125 -12.78125 26.828125 -10.40625 C 26.828125 -7.988281 26.179688 -5.875 24.890625 -4.0625 C 23.597656 -2.257812 21.90625 -0.863281 19.8125 0.125 C 17.726562 1.113281 15.519531 1.609375 13.1875 1.609375 C 10.863281 1.609375 8.890625 1.347656 7.265625 0.828125 C 5.648438 0.316406 4.410156 -0.191406 3.546875 -0.703125 C 2.691406 -1.222656 2.265625 -1.484375 2.265625 -1.484375 Z M 2.265625 -3.03125 "/></g></g></g><g fill="#898d8d" fill-opacity="1"><g transform="translate(272.967073, 347.71304)"><g><path d="M 3.75 0.0625 L 3.75 -40.609375 L 8.40625 -40.609375 L 8.40625 0.0625 Z M 3.75 0.0625 "/></g></g></g><g fill="#898d8d" fill-opacity="1"><g transform="translate(285.37988, 347.71304)"><g><path d="M 24.828125 -41.375 C 27.710938 -41.375 30.488281 -40.960938 33.15625 -40.140625 C 35.832031 -39.328125 38.21875 -38.066406 40.3125 -36.359375 C 42.40625 -34.660156 44.066406 -32.460938 45.296875 -29.765625 C 46.523438 -27.078125 47.140625 -23.859375 47.140625 -20.109375 C 47.140625 -16.660156 46.628906 -13.71875 45.609375 -11.28125 C 44.597656 -8.84375 43.257812 -6.816406 41.59375 -5.203125 C 39.9375 -3.585938 38.128906 -2.304688 36.171875 -1.359375 C 34.210938 -0.410156 32.238281 0.242188 30.25 0.609375 C 28.269531 0.972656 26.460938 1.15625 24.828125 1.15625 C 23.234375 1.15625 21.441406 0.972656 19.453125 0.609375 C 17.472656 0.242188 15.488281 -0.410156 13.5 -1.359375 C 11.519531 -2.304688 9.710938 -3.585938 8.078125 -5.203125 C 6.441406 -6.816406 5.117188 -8.84375 4.109375 -11.28125 C 3.097656 -13.71875 2.59375 -16.660156 2.59375 -20.109375 C 2.59375 -23.859375 3.191406 -27.078125 4.390625 -29.765625 C 5.597656 -32.460938 7.25 -34.660156 9.34375 -36.359375 C 11.4375 -38.066406 13.816406 -39.328125 16.484375 -40.140625 C 19.160156 -40.960938 21.941406 -41.375 24.828125 -41.375 Z M 24.828125 0.125 C 26.640625 0.125 28.566406 -0.140625 30.609375 -0.671875 C 32.660156 -1.210938 34.566406 -2.191406 36.328125 -3.609375 C 38.097656 -5.035156 39.539062 -7.082031 40.65625 -9.75 C 41.78125 -12.425781 42.34375 -15.878906 42.34375 -20.109375 C 42.34375 -23.472656 41.941406 -26.328125 41.140625 -28.671875 C 40.347656 -31.023438 39.304688 -32.953125 38.015625 -34.453125 C 36.722656 -35.960938 35.289062 -37.148438 33.71875 -38.015625 C 32.144531 -38.878906 30.582031 -39.472656 29.03125 -39.796875 C 27.476562 -40.117188 26.078125 -40.28125 24.828125 -40.28125 C 23.578125 -40.28125 22.175781 -40.117188 20.625 -39.796875 C 19.070312 -39.472656 17.519531 -38.878906 15.96875 -38.015625 C 14.414062 -37.148438 12.984375 -35.960938 11.671875 -34.453125 C 10.359375 -32.953125 9.300781 -31.023438 8.5 -28.671875 C 7.707031 -26.328125 7.3125 -23.472656 7.3125 -20.109375 C 7.3125 -15.878906 7.867188 -12.425781 8.984375 -9.75 C 10.109375 -7.082031 11.5625 -5.035156 13.34375 -3.609375 C 15.132812 -2.191406 17.039062 -1.210938 19.0625 -0.671875 C 21.09375 -0.140625 23.015625 0.125 24.828125 0.125 Z M 24.828125 0.125 "/></g></g></g><g fill="#898d8d" fill-opacity="1"><g transform="translate(335.419039, 347.71304)"><g><path d="M 36.140625 -40.609375 L 36.140625 1.15625 L 35.953125 1.15625 L 4.203125 -34.015625 L 4.203125 0.0625 L 3.109375 0.0625 L 3.109375 -41.375 L 3.296875 -41.375 L 35.046875 -6.203125 L 35.046875 -40.609375 Z M 36.140625 -40.609375 "/></g></g></g></svg>