<svg xmlns="http://www.w3.org/2000/svg" xmlns:xlink="http://www.w3.org/1999/xlink" width="500" zoomAndPan="magnify" viewBox="0 0 375 374.999991" height="500" preserveAspectRatio="xMidYMid meet" version="1.0"><defs><g/></defs><g fill="#a6a6a6" fill-opacity="0.4"><g transform="translate(77.057255, 252.680856)"><g><path d="M 6.703125 -12.609375 C 11.359375 -8.859375 17.21875 -5.367188 24.28125 -2.140625 C 31.351562 1.078125 40.613281 2.6875 52.0625 2.6875 C 59.40625 2.6875 66.207031 1.253906 72.46875 -1.609375 C 78.726562 -4.472656 83.78125 -8.8125 87.625 -14.625 C 91.476562 -20.4375 93.40625 -27.726562 93.40625 -36.5 C 93.40625 -44.019531 91.882812 -50.191406 88.84375 -55.015625 C 85.800781 -59.847656 81.726562 -63.875 76.625 -67.09375 C 71.519531 -70.3125 65.925781 -73.082031 59.84375 -75.40625 C 53.757812 -77.738281 47.628906 -80.203125 41.453125 -82.796875 C 35.285156 -85.390625 29.648438 -88.472656 24.546875 -92.046875 C 19.453125 -95.628906 15.382812 -100.238281 12.34375 -105.875 C 9.300781 -111.507812 7.78125 -118.625 7.78125 -127.21875 C 7.78125 -135.625 9.390625 -142.78125 12.609375 -148.6875 C 15.835938 -154.59375 20.046875 -159.378906 25.234375 -163.046875 C 30.421875 -166.710938 35.960938 -169.394531 41.859375 -171.09375 C 47.765625 -172.800781 53.40625 -173.65625 58.78125 -173.65625 C 65.9375 -173.65625 72.332031 -172.800781 77.96875 -171.09375 C 83.601562 -169.394531 88.078125 -167.695312 91.390625 -166 C 94.703125 -164.300781 96.359375 -163.453125 96.359375 -163.453125 L 96.625 -158.078125 C 96.625 -158.078125 95.054688 -158.972656 91.921875 -160.765625 C 88.796875 -162.554688 84.410156 -164.390625 78.765625 -166.265625 C 73.128906 -168.148438 66.46875 -169.09375 58.78125 -169.09375 C 47.320312 -169.09375 38.414062 -165.691406 32.0625 -158.890625 C 25.71875 -152.085938 22.546875 -143.859375 22.546875 -134.203125 C 22.546875 -126.148438 24.644531 -119.617188 28.84375 -114.609375 C 33.050781 -109.597656 38.421875 -105.4375 44.953125 -102.125 C 51.484375 -98.8125 58.414062 -95.675781 65.75 -92.71875 C 73.09375 -89.769531 80.03125 -86.375 86.5625 -82.53125 C 93.09375 -78.6875 98.414062 -73.628906 102.53125 -67.359375 C 106.644531 -61.097656 108.703125 -53.046875 108.703125 -43.203125 C 108.703125 -33.191406 106.015625 -24.425781 100.640625 -16.90625 C 95.273438 -9.394531 88.253906 -3.582031 79.578125 0.53125 C 70.898438 4.644531 61.726562 6.703125 52.0625 6.703125 C 42.40625 6.703125 34.222656 5.628906 27.515625 3.484375 C 20.804688 1.335938 15.660156 -0.804688 12.078125 -2.953125 C 8.492188 -5.097656 6.703125 -6.171875 6.703125 -6.171875 Z M 6.703125 -12.609375 "/></g></g></g><g fill="#898d8d" fill-opacity="1"><g transform="translate(65.195311, 240.818908)"><g><path d="M 6.703125 -12.609375 C 11.359375 -8.859375 17.21875 -5.367188 24.28125 -2.140625 C 31.351562 1.078125 40.613281 2.6875 52.0625 2.6875 C 59.40625 2.6875 66.207031 1.253906 72.46875 -1.609375 C 78.726562 -4.472656 83.78125 -8.8125 87.625 -14.625 C 91.476562 -20.4375 93.40625 -27.726562 93.40625 -36.5 C 93.40625 -44.019531 91.882812 -50.191406 88.84375 -55.015625 C 85.800781 -59.847656 81.726562 -63.875 76.625 -67.09375 C 71.519531 -70.3125 65.925781 -73.082031 59.84375 -75.40625 C 53.757812 -77.738281 47.628906 -80.203125 41.453125 -82.796875 C 35.285156 -85.390625 29.648438 -88.472656 24.546875 -92.046875 C 19.453125 -95.628906 15.382812 -100.238281 12.34375 -105.875 C 9.300781 -111.507812 7.78125 -118.625 7.78125 -127.21875 C 7.78125 -135.625 9.390625 -142.78125 12.609375 -148.6875 C 15.835938 -154.59375 20.046875 -159.378906 25.234375 -163.046875 C 30.421875 -166.710938 35.960938 -169.394531 41.859375 -171.09375 C 47.765625 -172.800781 53.40625 -173.65625 58.78125 -173.65625 C 65.9375 -173.65625 72.332031 -172.800781 77.96875 -171.09375 C 83.601562 -169.394531 88.078125 -167.695312 91.390625 -166 C 94.703125 -164.300781 96.359375 -163.453125 96.359375 -163.453125 L 96.625 -158.078125 C 96.625 -158.078125 95.054688 -158.972656 91.921875 -160.765625 C 88.796875 -162.554688 84.410156 -164.390625 78.765625 -166.265625 C 73.128906 -168.148438 66.46875 -169.09375 58.78125 -169.09375 C 47.320312 -169.09375 38.414062 -165.691406 32.0625 -158.890625 C 25.71875 -152.085938 22.546875 -143.859375 22.546875 -134.203125 C 22.546875 -126.148438 24.644531 -119.617188 28.84375 -114.609375 C 33.050781 -109.597656 38.421875 -105.4375 44.953125 -102.125 C 51.484375 -98.8125 58.414062 -95.675781 65.75 -92.71875 C 73.09375 -89.769531 80.03125 -86.375 86.5625 -82.53125 C 93.09375 -78.6875 98.414062 -73.628906 102.53125 -67.359375 C 106.644531 -61.097656 108.703125 -53.046875 108.703125 -43.203125 C 108.703125 -33.191406 106.015625 -24.425781 100.640625 -16.90625 C 95.273438 -9.394531 88.253906 -3.582031 79.578125 0.53125 C 70.898438 4.644531 61.726562 6.703125 52.0625 6.703125 C 42.40625 6.703125 34.222656 5.628906 27.515625 3.484375 C 20.804688 1.335938 15.660156 -0.804688 12.078125 -2.953125 C 8.492188 -5.097656 6.703125 -6.171875 6.703125 -6.171875 Z M 6.703125 -12.609375 "/></g></g></g><g fill="#737373" fill-opacity="0.4"><g transform="translate(146.63273, 250.203886)"><g><path d="M 154.328125 -168.546875 L 160.5 -168.546875 L 84 3.484375 L 82.671875 3.484375 L 8.859375 -168.546875 L 29.515625 -168.546875 L 90.71875 -25.5 Z M 154.328125 -168.546875 "/></g></g></g><g fill="#898d8d" fill-opacity="1"><g transform="translate(134.770776, 238.341938)"><g><path d="M 154.328125 -168.546875 L 160.5 -168.546875 L 84 3.484375 L 82.671875 3.484375 L 8.859375 -168.546875 L 29.515625 -168.546875 L 90.71875 -25.5 Z M 154.328125 -168.546875 "/></g></g></g><g fill="#898d8d" fill-opacity="1"><g transform="translate(62.540969, 224.714615)"><g><path d="M 6.703125 -12.609375 C 11.359375 -8.859375 17.21875 -5.367188 24.28125 -2.140625 C 31.351562 1.078125 40.613281 2.6875 52.0625 2.6875 C 59.40625 2.6875 66.207031 1.253906 72.46875 -1.609375 C 78.726562 -4.472656 83.78125 -8.8125 87.625 -14.625 C 91.476562 -20.4375 93.40625 -27.726562 93.40625 -36.5 C 93.40625 -44.019531 91.882812 -50.191406 88.84375 -55.015625 C 85.800781 -59.847656 81.726562 -63.875 76.625 -67.09375 C 71.519531 -70.3125 65.925781 -73.082031 59.84375 -75.40625 C 53.757812 -77.738281 47.628906 -80.203125 41.453125 -82.796875 C 35.285156 -85.390625 29.648438 -88.472656 24.546875 -92.046875 C 19.453125 -95.628906 15.382812 -100.238281 12.34375 -105.875 C 9.300781 -111.507812 7.78125 -118.625 7.78125 -127.21875 C 7.78125 -135.625 9.390625 -142.78125 12.609375 -148.6875 C 15.835938 -154.59375 20.046875 -159.378906 25.234375 -163.046875 C 30.421875 -166.710938 35.960938 -169.394531 41.859375 -171.09375 C 47.765625 -172.800781 53.40625 -173.65625 58.78125 -173.65625 C 65.9375 -173.65625 72.332031 -172.800781 77.96875 -171.09375 C 83.601562 -169.394531 88.078125 -167.695312 91.390625 -166 C 94.703125 -164.300781 96.359375 -163.453125 96.359375 -163.453125 L 96.625 -158.078125 C 96.625 -158.078125 95.054688 -158.972656 91.921875 -160.765625 C 88.796875 -162.554688 84.410156 -164.390625 78.765625 -166.265625 C 73.128906 -168.148438 66.46875 -169.09375 58.78125 -169.09375 C 47.320312 -169.09375 38.414062 -165.691406 32.0625 -158.890625 C 25.71875 -152.085938 22.546875 -143.859375 22.546875 -134.203125 C 22.546875 -126.148438 24.644531 -119.617188 28.84375 -114.609375 C 33.050781 -109.597656 38.421875 -105.4375 44.953125 -102.125 C 51.484375 -98.8125 58.414062 -95.675781 65.75 -92.71875 C 73.09375 -89.769531 80.03125 -86.375 86.5625 -82.53125 C 93.09375 -78.6875 98.414062 -73.628906 102.53125 -67.359375 C 106.644531 -61.097656 108.703125 -53.046875 108.703125 -43.203125 C 108.703125 -33.191406 106.015625 -24.425781 100.640625 -16.90625 C 95.273438 -9.394531 88.253906 -3.582031 79.578125 0.53125 C 70.898438 4.644531 61.726562 6.703125 52.0625 6.703125 C 42.40625 6.703125 34.222656 5.628906 27.515625 3.484375 C 20.804688 1.335938 15.660156 -0.804688 12.078125 -2.953125 C 8.492188 -5.097656 6.703125 -6.171875 6.703125 -6.171875 Z M 6.703125 -12.609375 "/></g></g></g><g fill="#898d8d" fill-opacity="1"><g transform="translate(128.645854, 222.23764)"><g><path d="M 154.328125 -168.546875 L 160.5 -168.546875 L 84 3.484375 L 82.671875 3.484375 L 8.859375 -168.546875 L 29.515625 -168.546875 L 90.71875 -25.5 Z M 154.328125 -168.546875 "/></g></g></g><path stroke-linecap="butt" transform="matrix(1.006518, 0, 0, 1.006518, 122.265253, 52.573881)" fill="none" stroke-linejoin="miter" d="M 0.000369321 1.999026 L 59.336247 1.999026 " stroke="#898d8d" stroke-width="4" stroke-opacity="1" stroke-miterlimit="4"/><path stroke-linecap="butt" transform="matrix(1.006518, 0, 0, 1.006518, 256.273728, 52.573881)" fill="none" stroke-linejoin="miter" d="M -0.000288292 1.999026 L 55.823328 1.999026 " stroke="#898d8d" stroke-width="4" stroke-opacity="1" stroke-miterlimit="4"/><path stroke-linecap="butt" transform="matrix(0, 1.006518, -1.006518, 0, 72.601663, 189.152155)" fill="none" stroke-linejoin="miter" d="M 0.000187747 1.99879 L 55.819923 1.99879 " stroke="#898d8d" stroke-width="4" stroke-opacity="1" stroke-miterlimit="4"/><g fill="#898d8d" fill-opacity="1"><g transform="translate(28.481855, 320.769481)"><g><path d="M 1.375 -2.578125 C 2.320312 -1.804688 3.515625 -1.09375 4.953125 -0.4375 C 6.398438 0.21875 8.296875 0.546875 10.640625 0.546875 C 12.140625 0.546875 13.53125 0.253906 14.8125 -0.328125 C 16.09375 -0.910156 17.125 -1.796875 17.90625 -2.984375 C 18.695312 -4.171875 19.09375 -5.660156 19.09375 -7.453125 C 19.09375 -8.992188 18.78125 -10.257812 18.15625 -11.25 C 17.53125 -12.238281 16.695312 -13.0625 15.65625 -13.71875 C 14.613281 -14.375 13.472656 -14.9375 12.234375 -15.40625 C 10.992188 -15.882812 9.738281 -16.390625 8.46875 -16.921875 C 7.207031 -17.453125 6.054688 -18.082031 5.015625 -18.8125 C 3.972656 -19.539062 3.140625 -20.484375 2.515625 -21.640625 C 1.898438 -22.796875 1.59375 -24.25 1.59375 -26 C 1.59375 -27.71875 1.921875 -29.179688 2.578125 -30.390625 C 3.234375 -31.597656 4.09375 -32.578125 5.15625 -33.328125 C 6.21875 -34.078125 7.351562 -34.625 8.5625 -34.96875 C 9.769531 -35.320312 10.921875 -35.5 12.015625 -35.5 C 13.472656 -35.5 14.78125 -35.320312 15.9375 -34.96875 C 17.09375 -34.625 18.003906 -34.273438 18.671875 -33.921875 C 19.347656 -33.578125 19.6875 -33.40625 19.6875 -33.40625 L 19.75 -32.3125 C 19.75 -32.3125 19.425781 -32.492188 18.78125 -32.859375 C 18.144531 -33.222656 17.25 -33.597656 16.09375 -33.984375 C 14.945312 -34.367188 13.585938 -34.5625 12.015625 -34.5625 C 9.671875 -34.5625 7.847656 -33.863281 6.546875 -32.46875 C 5.253906 -31.082031 4.609375 -29.40625 4.609375 -27.4375 C 4.609375 -25.789062 5.035156 -24.453125 5.890625 -23.421875 C 6.753906 -22.398438 7.851562 -21.550781 9.1875 -20.875 C 10.519531 -20.195312 11.9375 -19.554688 13.4375 -18.953125 C 14.9375 -18.347656 16.351562 -17.648438 17.6875 -16.859375 C 19.019531 -16.078125 20.109375 -15.046875 20.953125 -13.765625 C 21.796875 -12.484375 22.21875 -10.835938 22.21875 -8.828125 C 22.21875 -6.785156 21.664062 -4.992188 20.5625 -3.453125 C 19.46875 -1.921875 18.035156 -0.734375 16.265625 0.109375 C 14.492188 0.953125 12.617188 1.375 10.640625 1.375 C 8.671875 1.375 7 1.15625 5.625 0.71875 C 4.25 0.28125 3.195312 -0.15625 2.46875 -0.59375 C 1.738281 -1.039062 1.375 -1.265625 1.375 -1.265625 Z M 1.375 -2.578125 "/></g></g></g><g fill="#898d8d" fill-opacity="1"><g transform="translate(52.89129, 320.769481)"><g><path d="M 26.984375 -34.453125 L 26.984375 -33.515625 L 16.34375 -33.515625 L 16.34375 0.0625 L 12.453125 0.0625 L 12.453125 -33.515625 L 1.8125 -33.515625 L 1.8125 -34.453125 Z M 26.984375 -34.453125 "/></g></g></g><g fill="#898d8d" fill-opacity="1"><g transform="translate(81.688944, 320.769481)"><g><path d="M 26.765625 -34.453125 L 27.8125 -34.453125 L 16.84375 -16.078125 L 16.84375 0.0625 L 12.890625 0.0625 L 12.890625 -14.984375 L 1.75 -34.453125 L 6.3125 -34.453125 L 16.296875 -16.953125 Z M 26.765625 -34.453125 "/></g></g></g><g fill="#898d8d" fill-opacity="1"><g transform="translate(111.309379, 320.769481)"><g><path d="M 6.578125 -0.875 L 20.296875 -0.875 L 20.296875 0.0625 L 2.640625 0.0625 L 2.640625 -34.453125 L 6.578125 -34.453125 Z M 6.578125 -0.875 "/></g></g></g><g fill="#898d8d" fill-opacity="1"><g transform="translate(133.689267, 320.769481)"><g><path d="M 21.0625 -35.109375 C 23.507812 -35.109375 25.867188 -34.757812 28.140625 -34.0625 C 30.410156 -33.375 32.429688 -32.304688 34.203125 -30.859375 C 35.972656 -29.410156 37.378906 -27.539062 38.421875 -25.25 C 39.472656 -22.96875 40 -20.238281 40 -17.0625 C 40 -14.132812 39.566406 -11.632812 38.703125 -9.5625 C 37.847656 -7.5 36.710938 -5.78125 35.296875 -4.40625 C 33.890625 -3.039062 32.351562 -1.953125 30.6875 -1.140625 C 29.03125 -0.335938 27.359375 0.210938 25.671875 0.515625 C 23.992188 0.828125 22.457031 0.984375 21.0625 0.984375 C 19.707031 0.984375 18.1875 0.828125 16.5 0.515625 C 14.820312 0.210938 13.140625 -0.335938 11.453125 -1.140625 C 9.773438 -1.953125 8.238281 -3.039062 6.84375 -4.40625 C 5.457031 -5.78125 4.332031 -7.5 3.46875 -9.5625 C 2.613281 -11.632812 2.1875 -14.132812 2.1875 -17.0625 C 2.1875 -20.238281 2.695312 -22.96875 3.71875 -25.25 C 4.75 -27.539062 6.148438 -29.410156 7.921875 -30.859375 C 9.703125 -32.304688 11.722656 -33.375 13.984375 -34.0625 C 16.253906 -34.757812 18.613281 -35.109375 21.0625 -35.109375 Z M 21.0625 0.109375 C 22.601562 0.109375 24.238281 -0.117188 25.96875 -0.578125 C 27.707031 -1.035156 29.328125 -1.863281 30.828125 -3.0625 C 32.328125 -4.269531 33.550781 -6.007812 34.5 -8.28125 C 35.457031 -10.550781 35.9375 -13.476562 35.9375 -17.0625 C 35.9375 -19.914062 35.597656 -22.335938 34.921875 -24.328125 C 34.242188 -26.316406 33.351562 -27.953125 32.25 -29.234375 C 31.15625 -30.515625 29.941406 -31.519531 28.609375 -32.25 C 27.273438 -32.988281 25.945312 -33.492188 24.625 -33.765625 C 23.3125 -34.035156 22.125 -34.171875 21.0625 -34.171875 C 20 -34.171875 18.8125 -34.035156 17.5 -33.765625 C 16.1875 -33.492188 14.867188 -32.988281 13.546875 -32.25 C 12.234375 -31.519531 11.019531 -30.515625 9.90625 -29.234375 C 8.789062 -27.953125 7.894531 -26.316406 7.21875 -24.328125 C 6.539062 -22.335938 6.203125 -19.914062 6.203125 -17.0625 C 6.203125 -13.476562 6.675781 -10.550781 7.625 -8.28125 C 8.570312 -6.007812 9.804688 -4.269531 11.328125 -3.0625 C 12.847656 -1.863281 14.46875 -1.035156 16.1875 -0.578125 C 17.90625 -0.117188 19.53125 0.109375 21.0625 0.109375 Z M 21.0625 0.109375 "/></g></g></g><g fill="#898d8d" fill-opacity="1"><g transform="translate(176.145236, 320.769481)"><g/></g></g><g fill="#898d8d" fill-opacity="1"><g transform="translate(189.858397, 320.769481)"><g><path d="M 31.546875 -34.453125 L 32.8125 -34.453125 L 17.171875 0.71875 L 16.890625 0.71875 L 1.8125 -34.453125 L 6.03125 -34.453125 L 18.546875 -5.21875 Z M 31.546875 -34.453125 "/></g></g></g><g fill="#898d8d" fill-opacity="1"><g transform="translate(224.525291, 320.769481)"><g><path d="M 3.1875 0.0625 L 3.1875 -34.453125 L 7.125 -34.453125 L 7.125 0.0625 Z M 3.1875 0.0625 "/></g></g></g><g fill="#898d8d" fill-opacity="1"><g transform="translate(235.056999, 320.769481)"><g><path d="M 1.921875 -2.578125 C 2.867188 -1.804688 4.066406 -1.09375 5.515625 -0.4375 C 6.960938 0.21875 8.851562 0.546875 11.1875 0.546875 C 12.6875 0.546875 14.078125 0.253906 15.359375 -0.328125 C 16.640625 -0.910156 17.671875 -1.796875 18.453125 -2.984375 C 19.242188 -4.171875 19.640625 -5.660156 19.640625 -7.453125 C 19.640625 -8.992188 19.328125 -10.257812 18.703125 -11.25 C 18.085938 -12.238281 17.253906 -13.0625 16.203125 -13.71875 C 15.160156 -14.375 14.019531 -14.9375 12.78125 -15.40625 C 11.539062 -15.882812 10.285156 -16.390625 9.015625 -16.921875 C 7.753906 -17.453125 6.601562 -18.082031 5.5625 -18.8125 C 4.519531 -19.539062 3.6875 -20.484375 3.0625 -21.640625 C 2.445312 -22.796875 2.140625 -24.25 2.140625 -26 C 2.140625 -27.71875 2.46875 -29.179688 3.125 -30.390625 C 3.78125 -31.597656 4.640625 -32.578125 5.703125 -33.328125 C 6.765625 -34.078125 7.898438 -34.625 9.109375 -34.96875 C 10.316406 -35.320312 11.46875 -35.5 12.5625 -35.5 C 14.019531 -35.5 15.328125 -35.320312 16.484375 -34.96875 C 17.640625 -34.625 18.554688 -34.273438 19.234375 -33.921875 C 19.910156 -33.578125 20.25 -33.40625 20.25 -33.40625 L 20.296875 -32.3125 C 20.296875 -32.3125 19.972656 -32.492188 19.328125 -32.859375 C 18.691406 -33.222656 17.796875 -33.597656 16.640625 -33.984375 C 15.492188 -34.367188 14.132812 -34.5625 12.5625 -34.5625 C 10.21875 -34.5625 8.394531 -33.863281 7.09375 -32.46875 C 5.800781 -31.082031 5.15625 -29.40625 5.15625 -27.4375 C 5.15625 -25.789062 5.582031 -24.453125 6.4375 -23.421875 C 7.300781 -22.398438 8.398438 -21.550781 9.734375 -20.875 C 11.066406 -20.195312 12.484375 -19.554688 13.984375 -18.953125 C 15.484375 -18.347656 16.898438 -17.648438 18.234375 -16.859375 C 19.578125 -16.078125 20.664062 -15.046875 21.5 -13.765625 C 22.34375 -12.484375 22.765625 -10.835938 22.765625 -8.828125 C 22.765625 -6.785156 22.210938 -4.992188 21.109375 -3.453125 C 20.015625 -1.921875 18.582031 -0.734375 16.8125 0.109375 C 15.039062 0.953125 13.164062 1.375 11.1875 1.375 C 9.21875 1.375 7.546875 1.15625 6.171875 0.71875 C 4.796875 0.28125 3.742188 -0.15625 3.015625 -0.59375 C 2.285156 -1.039062 1.921875 -1.265625 1.921875 -1.265625 Z M 1.921875 -2.578125 "/></g></g></g><g fill="#898d8d" fill-opacity="1"><g transform="translate(260.014973, 320.769481)"><g><path d="M 3.1875 0.0625 L 3.1875 -34.453125 L 7.125 -34.453125 L 7.125 0.0625 Z M 3.1875 0.0625 "/></g></g></g><g fill="#898d8d" fill-opacity="1"><g transform="translate(270.54668, 320.769481)"><g><path d="M 21.0625 -35.109375 C 23.507812 -35.109375 25.867188 -34.757812 28.140625 -34.0625 C 30.410156 -33.375 32.429688 -32.304688 34.203125 -30.859375 C 35.972656 -29.410156 37.378906 -27.539062 38.421875 -25.25 C 39.472656 -22.96875 40 -20.238281 40 -17.0625 C 40 -14.132812 39.566406 -11.632812 38.703125 -9.5625 C 37.847656 -7.5 36.710938 -5.78125 35.296875 -4.40625 C 33.890625 -3.039062 32.351562 -1.953125 30.6875 -1.140625 C 29.03125 -0.335938 27.359375 0.210938 25.671875 0.515625 C 23.992188 0.828125 22.457031 0.984375 21.0625 0.984375 C 19.707031 0.984375 18.1875 0.828125 16.5 0.515625 C 14.820312 0.210938 13.140625 -0.335938 11.453125 -1.140625 C 9.773438 -1.953125 8.238281 -3.039062 6.84375 -4.40625 C 5.457031 -5.78125 4.332031 -7.5 3.46875 -9.5625 C 2.613281 -11.632812 2.1875 -14.132812 2.1875 -17.0625 C 2.1875 -20.238281 2.695312 -22.96875 3.71875 -25.25 C 4.75 -27.539062 6.148438 -29.410156 7.921875 -30.859375 C 9.703125 -32.304688 11.722656 -33.375 13.984375 -34.0625 C 16.253906 -34.757812 18.613281 -35.109375 21.0625 -35.109375 Z M 21.0625 0.109375 C 22.601562 0.109375 24.238281 -0.117188 25.96875 -0.578125 C 27.707031 -1.035156 29.328125 -1.863281 30.828125 -3.0625 C 32.328125 -4.269531 33.550781 -6.007812 34.5 -8.28125 C 35.457031 -10.550781 35.9375 -13.476562 35.9375 -17.0625 C 35.9375 -19.914062 35.597656 -22.335938 34.921875 -24.328125 C 34.242188 -26.316406 33.351562 -27.953125 32.25 -29.234375 C 31.15625 -30.515625 29.941406 -31.519531 28.609375 -32.25 C 27.273438 -32.988281 25.945312 -33.492188 24.625 -33.765625 C 23.3125 -34.035156 22.125 -34.171875 21.0625 -34.171875 C 20 -34.171875 18.8125 -34.035156 17.5 -33.765625 C 16.1875 -33.492188 14.867188 -32.988281 13.546875 -32.25 C 12.234375 -31.519531 11.019531 -30.515625 9.90625 -29.234375 C 8.789062 -27.953125 7.894531 -26.316406 7.21875 -24.328125 C 6.539062 -22.335938 6.203125 -19.914062 6.203125 -17.0625 C 6.203125 -13.476562 6.675781 -10.550781 7.625 -8.28125 C 8.570312 -6.007812 9.804688 -4.269531 11.328125 -3.0625 C 12.847656 -1.863281 14.46875 -1.035156 16.1875 -0.578125 C 17.90625 -0.117188 19.53125 0.109375 21.0625 0.109375 Z M 21.0625 0.109375 "/></g></g></g><g fill="#898d8d" fill-opacity="1"><g transform="translate(313.002654, 320.769481)"><g><path d="M 30.671875 -34.453125 L 30.671875 0.984375 L 30.5 0.984375 L 3.5625 -28.859375 L 3.5625 0.0625 L 2.640625 0.0625 L 2.640625 -35.109375 L 2.796875 -35.109375 L 29.734375 -5.265625 L 29.734375 -34.453125 Z M 30.671875 -34.453125 "/></g></g></g></svg>